<svg width="140" height="45" viewBox="0 0 140 45" fill="none" xmlns="http://www.w3.org/2000/svg">
<g clip-path="url(#clip0_56_4008)">
<path d="M73.7832 11.4049C73.7832 12.9857 72.5148 14.2591 70.9403 14.2591C69.3658 14.2591 68.0975 12.9857 68.0975 11.4049C68.0975 9.82411 69.3221 8.5507 70.9403 8.5507C72.5586 8.59461 73.7832 9.86802 73.7832 11.4049ZM62.0619 17.1572C62.0619 17.4206 62.0619 17.8597 62.0619 17.8597C62.0619 17.8597 60.706 16.1033 57.8194 16.1033C53.0522 16.1033 49.3346 19.7479 49.3346 24.7976C49.3346 29.8034 53.0084 33.4919 57.8194 33.4919C60.7498 33.4919 62.0619 31.6916 62.0619 31.6916V32.4381C62.0619 32.7893 62.3243 33.0528 62.6742 33.0528H66.2168V16.5424C66.2168 16.5424 62.9803 16.5424 62.6742 16.5424C62.3243 16.5424 62.0619 16.8498 62.0619 17.1572ZM62.0619 27.7396C61.4058 28.7057 60.0937 29.54 58.5192 29.54C55.7201 29.54 53.577 27.7835 53.577 24.7976C53.577 21.8117 55.7201 20.0553 58.5192 20.0553C60.05 20.0553 61.4495 20.9335 62.0619 21.8556V27.7396ZM68.841 16.5424H73.0397V33.0528H68.841V16.5424ZM131.559 16.1033C128.672 16.1033 127.316 17.8597 127.316 17.8597V8.59461H123.118V33.0528C123.118 33.0528 126.354 33.0528 126.66 33.0528C127.01 33.0528 127.273 32.7454 127.273 32.4381V31.6916C127.273 31.6916 128.629 33.4919 131.515 33.4919C136.282 33.4919 140 29.8034 140 24.7976C140 19.7918 136.282 16.1033 131.559 16.1033ZM130.859 29.496C129.241 29.496 127.973 28.6617 127.316 27.6957V21.8117C127.973 20.9335 129.372 20.0114 130.859 20.0114C133.658 20.0114 135.801 21.7678 135.801 24.7537C135.801 27.7396 133.658 29.496 130.859 29.496ZM120.931 23.2607V33.0967H116.732V23.7438C116.732 21.0213 115.858 19.9235 113.496 19.9235C112.227 19.9235 110.915 20.5822 110.084 21.5482V33.0528H105.886V16.5424H109.21C109.56 16.5424 109.822 16.8498 109.822 17.1572V17.8597C111.047 16.5863 112.665 16.1033 114.283 16.1033C116.12 16.1033 117.651 16.6302 118.875 17.6841C120.362 18.9136 120.931 20.4944 120.931 23.2607ZM95.6951 16.1033C92.8085 16.1033 91.4527 17.8597 91.4527 17.8597V8.59461H87.254V33.0528C87.254 33.0528 90.4905 33.0528 90.7966 33.0528C91.1465 33.0528 91.4089 32.7454 91.4089 32.4381V31.6916C91.4089 31.6916 92.7648 33.4919 95.6514 33.4919C100.419 33.4919 104.136 29.8034 104.136 24.7976C104.18 19.7918 100.462 16.1033 95.6951 16.1033ZM94.9953 29.496C93.3771 29.496 92.1087 28.6617 91.4527 27.6957V21.8117C92.1087 20.9335 93.5083 20.0114 94.9953 20.0114C97.7944 20.0114 99.9375 21.7678 99.9375 24.7537C99.9375 27.7396 97.7944 29.496 94.9953 29.496ZM83.6239 16.1033C84.8922 16.1033 85.5483 16.3229 85.5483 16.3229V20.2309C85.5483 20.2309 82.0494 19.0453 79.8625 21.5482V33.0967H75.6638V16.5424C75.6638 16.5424 78.9003 16.5424 79.2065 16.5424C79.5564 16.5424 79.8188 16.8498 79.8188 17.1572V17.8597C80.6061 16.9376 82.3118 16.1033 83.6239 16.1033ZM40.0187 31.5598C39.8001 31.0329 39.5814 30.4621 39.3627 29.9791C39.0128 29.1887 38.6629 28.4422 38.3568 27.7396L38.313 27.6957C35.2952 21.1091 32.0587 14.4347 28.6473 7.84813L28.5161 7.58467C28.1662 6.92601 27.8163 6.22344 27.4664 5.52087C27.0291 4.73048 26.5917 3.89618 25.8919 3.10579C24.4923 1.34936 22.4805 0.383331 20.3374 0.383331C18.1506 0.383331 16.1824 1.34936 14.7391 3.01797C14.0831 3.80836 13.602 4.64266 13.1646 5.43305C12.8147 6.13562 12.4649 6.83819 12.115 7.49685L11.9838 7.76031C8.61606 14.3469 5.33583 21.0213 2.31802 27.6079L2.27429 27.6957C1.96813 28.3983 1.61824 29.1448 1.26835 29.9352C1.04967 30.4182 0.830988 30.9451 0.612306 31.5159C0.0437342 33.1406 -0.131211 34.6775 0.0874705 36.2583C0.56857 39.5516 2.75539 42.3179 5.77319 43.5474C6.91034 44.0305 8.09122 44.25 9.31584 44.25C9.66573 44.25 10.1031 44.2061 10.453 44.1622C11.8963 43.9865 13.3833 43.5035 14.8266 42.6692C16.6198 41.6593 18.3255 40.2102 20.2499 38.1025C22.1743 40.2102 23.9238 41.6593 25.6732 42.6692C27.1165 43.5035 28.6036 43.9865 30.0469 44.1622C30.3967 44.2061 30.8341 44.25 31.184 44.25C32.4086 44.25 33.6332 44.0305 34.7266 43.5474C37.7882 42.3179 39.9313 39.5077 40.4124 36.2583C40.7623 34.7214 40.5873 33.1845 40.0187 31.5598ZM20.2937 33.8432C17.9319 30.8573 16.4011 28.047 15.8763 25.6758C15.6576 24.6659 15.6139 23.7877 15.7451 22.9973C15.8326 22.2947 16.095 21.68 16.4449 21.153C17.2759 19.9675 18.6754 19.221 20.2937 19.221C21.9119 19.221 23.3552 19.9235 24.1425 21.153C24.4923 21.68 24.7548 22.2947 24.8422 22.9973C24.9734 23.7877 24.9297 24.7098 24.711 25.6758C24.1862 28.0031 22.6554 30.8134 20.2937 33.8432ZM37.7445 35.907C37.4383 38.1903 35.9075 40.1663 33.7644 41.0445C32.7148 41.4836 31.5776 41.6154 30.4405 41.4836C29.3471 41.3519 28.2537 41.0006 27.1165 40.342C25.542 39.4638 23.9675 38.1025 22.1306 36.0826C25.0172 32.5259 26.7666 29.2765 27.4227 26.3784C27.7288 25.0172 27.7726 23.7877 27.6414 22.646C27.4664 21.5482 27.0728 20.5383 26.4605 19.6601C25.1047 17.6841 22.8304 16.5424 20.2937 16.5424C17.757 16.5424 15.4827 17.728 14.1268 19.6601C13.5145 20.5383 13.1209 21.5482 12.946 22.646C12.771 23.7877 12.8147 25.0611 13.1646 26.3784C13.8207 29.2765 15.6139 32.5698 18.4567 36.1265C16.6635 38.1464 15.0453 39.5077 13.4708 40.3859C12.3336 41.0445 11.2402 41.3958 10.1468 41.5275C8.96595 41.6593 7.8288 41.4836 6.82287 41.0884C4.67979 40.2102 3.14901 38.2343 2.84286 35.9509C2.71165 34.8531 2.79912 33.7554 3.23649 32.5259C3.3677 32.0868 3.58638 31.6477 3.80506 31.1207C4.11121 30.4182 4.4611 29.6717 4.81099 28.9252L4.85473 28.8374C7.87254 22.2947 11.109 15.6203 14.4767 9.12154L14.6079 8.85807C14.9578 8.19941 15.3077 7.49685 15.6576 6.83819C16.0075 6.13562 16.4011 5.47696 16.8822 4.90612C17.8007 3.85227 19.0253 3.28143 20.3811 3.28143C21.737 3.28143 22.9616 3.85227 23.88 4.90612C24.3611 5.47696 24.7548 6.13562 25.1047 6.83819C25.4545 7.49685 25.8044 8.19941 26.1543 8.85807L26.2855 9.12154C29.6095 15.6642 32.846 22.3386 35.8638 28.8813V28.9252C36.2137 29.6278 36.5198 30.4182 36.8697 31.1207C37.0884 31.6477 37.3071 32.0868 37.4383 32.5259C37.7882 33.6676 37.9194 34.7653 37.7445 35.907Z" fill="#2F1C48"/>
</g>
<defs>
<clipPath id="clip0_56_4008">
<rect width="140" height="43.8667" fill="white" transform="translate(0 0.383331)"/>
</clipPath>
</defs>
</svg>
