<svg width="150" height="31" viewBox="0 0 150 31" fill="none" xmlns="http://www.w3.org/2000/svg">
<g clip-path="url(#clip0_56_3967)">
<path d="M17.4 6.11007L8.7 11.6535L17.4 17.1969L8.7 22.7403L0 17.167L8.7 11.6235L0 6.11007L8.7 0.56665L17.4 6.11007ZM8.655 24.5232L17.355 18.9798L26.055 24.5232L17.355 30.0667L8.655 24.5232ZM17.4 17.167L26.1 11.6235L17.4 6.11007L26.055 0.56665L34.755 6.11007L26.055 11.6535L34.755 17.1969L26.055 22.7403L17.4 17.167Z" fill="#2F1C48"/>
<path d="M41.58 6.11007H48.615C53.1 6.11007 56.805 8.702 56.805 14.62V15.8635C56.805 21.8264 53.34 24.5082 48.75 24.5082H41.58V6.11007ZM45.51 9.45111V21.1522H48.525C51.075 21.1522 52.785 19.4892 52.785 15.7886V14.8147C52.785 11.1141 50.985 9.45111 48.39 9.45111H45.51ZM58.89 9.6309H62.04L62.55 13.0918C63.15 10.7396 64.68 9.48107 67.455 9.48107H68.43V13.4514H66.81C63.615 13.4514 62.835 14.56 62.835 17.7063V24.5532H58.95V9.6309H58.89ZM69.21 17.3917V16.9722C69.21 11.9831 72.405 9.25634 76.755 9.25634C81.195 9.25634 84.3 11.9831 84.3 16.9722V17.3917C84.3 22.2909 81.285 24.9278 76.755 24.9278C71.94 24.8828 69.21 22.3059 69.21 17.3917ZM80.325 17.3467V16.9722C80.325 14.2005 78.93 12.5374 76.71 12.5374C74.535 12.5374 73.095 14.0656 73.095 16.9722V17.3467C73.095 20.0286 74.49 21.5567 76.71 21.5567C78.93 21.5118 80.325 20.0286 80.325 17.3467ZM86.34 9.6309H89.58L89.955 12.4476C90.735 10.5598 92.4 9.25634 94.86 9.25634C98.655 9.25634 101.16 11.9831 101.16 17.0321V17.4516C101.16 22.3508 98.385 24.9427 94.86 24.9427C92.505 24.9427 90.885 23.879 90.09 22.171V29.7071H86.295L86.34 9.6309ZM97.215 17.3467V17.0171C97.215 14.0507 95.685 12.5824 93.645 12.5824C91.47 12.5824 90.03 14.2454 90.03 17.0171V17.3018C90.03 19.9387 91.425 21.6017 93.6 21.6017C95.835 21.5567 97.215 20.1334 97.215 17.3467ZM106.905 21.7965L106.575 24.5232H103.245V4.64182H107.04V12.2678C107.88 10.3201 109.545 9.25634 111.9 9.25634C115.47 9.30129 118.11 11.7584 118.11 16.7025V17.167C118.11 22.1111 115.605 24.9427 111.81 24.9427C109.305 24.8828 107.685 23.7292 106.905 21.7965ZM114.12 17.167V16.7924C114.12 14.0656 112.635 12.5374 110.55 12.5374C108.42 12.5374 106.935 14.2454 106.935 16.8373V17.167C106.935 19.9387 108.375 21.5567 110.505 21.5567C112.785 21.5567 114.12 20.1334 114.12 17.167ZM119.775 17.3917V16.9722C119.775 11.9831 122.97 9.25634 127.32 9.25634C131.76 9.25634 134.865 11.9831 134.865 16.9722V17.3917C134.865 22.2909 131.805 24.9278 127.32 24.9278C122.505 24.8828 119.775 22.3059 119.775 17.3917ZM130.92 17.3467V16.9722C130.92 14.2005 129.525 12.5374 127.305 12.5374C125.13 12.5374 123.69 14.0656 123.69 16.9722V17.3467C123.69 20.0286 125.085 21.5567 127.305 21.5567C129.54 21.5118 130.92 20.0286 130.92 17.3467ZM139.95 16.7924L134.715 9.6309H139.2L142.215 14.1106L145.275 9.6309H149.715L144.405 16.7475L150 24.5232H145.605L142.185 19.5791L138.855 24.5232H134.265L139.95 16.7924Z" fill="#2F1C48"/>
</g>
<defs>
<clipPath id="clip0_56_3967">
<rect width="150" height="29.5" fill="white" transform="translate(0 0.56665)"/>
</clipPath>
</defs>
</svg>
