<svg width="40" height="40" viewBox="0 0 40 40" fill="none" xmlns="http://www.w3.org/2000/svg">
<circle cx="20" cy="20" r="20" fill="#F8F9FF"/>
<g clip-path="url(#clip0_56_3447)">
<path fill-rule="evenodd" clip-rule="evenodd" d="M25.69 32.6663C23.89 32.6001 18.7887 31.8951 13.4462 26.5538C8.105 21.2113 7.40125 16.1113 7.33375 14.3101C7.23375 11.5651 9.33625 8.89884 11.765 7.85759C12.0575 7.73129 12.3778 7.68321 12.6944 7.71806C13.0111 7.7529 13.3132 7.86947 13.5712 8.05634C15.5712 9.51384 16.9513 11.7188 18.1362 13.4526C18.397 13.8335 18.5085 14.297 18.4494 14.7548C18.3904 15.2126 18.1651 15.6327 17.8162 15.9351L15.3775 17.7463C15.2597 17.8314 15.1767 17.9564 15.1441 18.098C15.1114 18.2396 15.1313 18.3883 15.2 18.5163C15.7525 19.5201 16.735 21.0151 17.86 22.1401C18.9862 23.2651 20.5513 24.3126 21.625 24.9276C21.7596 25.0032 21.9181 25.0243 22.0678 24.9866C22.2175 24.949 22.3472 24.8554 22.43 24.7251L24.0175 22.3088C24.3094 21.9211 24.7399 21.6614 25.219 21.5841C25.698 21.5067 26.1884 21.6177 26.5875 21.8938C28.3463 23.1113 30.3988 24.4676 31.9012 26.3913C32.1033 26.6512 32.2318 26.9606 32.2734 27.2871C32.3149 27.6137 32.268 27.9454 32.1375 28.2476C31.0912 30.6888 28.4438 32.7676 25.69 32.6663Z" fill="#AC6CFF"/>
</g>
<defs>
<clipPath id="clip0_56_3447">
<rect width="30" height="30" fill="white" transform="translate(5 5)"/>
</clipPath>
</defs>
</svg>
