<svg width="1254" height="80" viewBox="0 0 1254 80" fill="none" xmlns="http://www.w3.org/2000/svg">
<rect x="121.144" y="31.6121" width="228.521" height="14.0498" rx="7.02491" fill="#EFF0F7"/>
<rect x="121.144" y="31.6121" width="114.26" height="14.0498" rx="7.02491" fill="#4A3AFF"/>
<rect x="512.741" y="31.6121" width="228.521" height="14.0498" rx="7.02491" fill="#EFF0F7"/>
<rect x="904.337" y="31.6121" width="228.521" height="14.0498" rx="7.02491" fill="#EFF0F7"/>
<ellipse cx="39.6047" cy="39.8078" rx="39.6047" ry="39.8078" fill="#4A3AFF"/>
<path d="M39.1599 51.5716V28.3716L34.6399 29.4116V26.2916L40.8399 23.5716H43.5599V51.5716H39.1599Z" fill="white"/>
<ellipse cx="431.201" cy="39.8078" rx="39.6047" ry="39.8078" fill="#EFF0F7"/>
<path d="M423.864 51.7283V49.3683C425.758 47.8749 427.544 46.3683 429.224 44.8483C430.931 43.3016 432.438 41.7816 433.744 40.2883C435.078 38.7949 436.118 37.3283 436.864 35.8883C437.638 34.4483 438.024 33.0616 438.024 31.7283C438.024 30.7416 437.851 29.8216 437.504 28.9683C437.184 28.1149 436.651 27.4349 435.904 26.9283C435.158 26.3949 434.144 26.1283 432.864 26.1283C431.638 26.1283 430.611 26.4083 429.784 26.9683C428.958 27.5016 428.331 28.2216 427.904 29.1283C427.504 30.0349 427.304 31.0083 427.304 32.0483H424.064C424.064 30.2083 424.451 28.6349 425.224 27.3283C425.998 25.9949 427.051 24.9816 428.384 24.2883C429.718 23.5949 431.224 23.2483 432.904 23.2483C435.384 23.2483 437.411 23.9549 438.984 25.3683C440.584 26.7549 441.384 28.8349 441.384 31.6083C441.384 33.2616 440.971 34.9016 440.144 36.5283C439.318 38.1283 438.264 39.6883 436.984 41.2083C435.704 42.7016 434.331 44.1016 432.864 45.4083C431.424 46.7149 430.078 47.8883 428.824 48.9283H442.344V51.7283H423.864Z" fill="#6F6C90"/>
<ellipse cx="822.799" cy="39.8078" rx="39.6047" ry="39.8078" fill="#EFF0F7"/>
<path d="M824.272 54.0516C822.486 54.0516 820.872 53.7316 819.432 53.0916C817.992 52.4249 816.832 51.4383 815.952 50.1316C815.099 48.8249 814.646 47.1983 814.592 45.2516H817.992C818.019 46.8516 818.579 48.2383 819.672 49.4116C820.766 50.5583 822.299 51.1316 824.272 51.1316C826.246 51.1316 827.726 50.5849 828.712 49.4916C829.726 48.3983 830.232 47.0783 830.232 45.5316C830.232 44.2249 829.912 43.1583 829.272 42.3316C828.659 41.5049 827.819 40.8916 826.752 40.4916C825.712 40.0916 824.566 39.8916 823.312 39.8916H821.232V37.0516H823.312C825.126 37.0516 826.539 36.6383 827.552 35.8116C828.592 34.9849 829.112 33.8249 829.112 32.3316C829.112 31.0783 828.699 30.0516 827.872 29.2516C827.072 28.4249 825.872 28.0116 824.272 28.0116C822.726 28.0116 821.486 28.4783 820.552 29.4116C819.619 30.3183 819.099 31.4649 818.992 32.8516H815.592C815.672 31.3316 816.072 29.9849 816.792 28.8116C817.539 27.6383 818.552 26.7316 819.832 26.0916C821.112 25.4249 822.592 25.0916 824.272 25.0916C826.086 25.0916 827.592 25.4116 828.792 26.0516C830.019 26.6916 830.939 27.5449 831.552 28.6116C832.192 29.6783 832.512 30.8516 832.512 32.1316C832.512 33.5449 832.126 34.8383 831.352 36.0116C830.579 37.1583 829.419 37.9316 827.872 38.3316C829.526 38.6783 830.899 39.4649 831.992 40.6916C833.086 41.9183 833.632 43.5316 833.632 45.5316C833.632 47.0783 833.272 48.5049 832.552 49.8116C831.859 51.0916 830.819 52.1183 829.432 52.8916C828.046 53.6649 826.326 54.0516 824.272 54.0516Z" fill="#6F6C90"/>
<ellipse cx="1214.4" cy="39.8078" rx="39.6047" ry="39.8078" fill="#EFF0F7"/>
<path d="M1218.64 51.7283V45.7283H1204.44V43.1283L1218.04 23.7283H1221.96V42.7683H1226.12V45.7283H1221.96V51.7283H1218.64ZM1208.16 42.7683H1218.8V27.4483L1208.16 42.7683Z" fill="#6F6C90"/>
</svg>
