<svg width="1254" height="81" viewBox="0 0 1254 81" fill="none" xmlns="http://www.w3.org/2000/svg">
<rect x="121.144" y="31.6138" width="228.521" height="14.0506" rx="7.02529" fill="#4A3AFF"/>
<rect x="512.741" y="31.6138" width="228.521" height="14.0506" rx="7.02529" fill="#EFF0F7"/>
<rect x="512.742" y="31.6138" width="114.26" height="14.0506" rx="7.02529" fill="#4A3AFF"/>
<rect x="904.337" y="31.6138" width="228.521" height="14.0506" rx="7.02529" fill="#EFF0F7"/>
<ellipse cx="39.6047" cy="39.81" rx="39.6047" ry="39.81" fill="#4A3AFF"/>
<path d="M37.3357 51.7341V28.5341L32.8157 29.5741V26.4541L39.0157 23.7341H41.7357V51.7341H37.3357Z" fill="white"/>
<ellipse cx="431.201" cy="39.81" rx="39.6047" ry="39.81" fill="#4A3AFF"/>
<path d="M423.163 51.7341V48.6941C424.976 47.2541 426.709 45.8008 428.363 44.3341C430.016 42.8675 431.483 41.4275 432.763 40.0141C434.069 38.5741 435.096 37.1741 435.843 35.8141C436.589 34.4275 436.963 33.0941 436.963 31.8141C436.963 30.9608 436.816 30.1608 436.523 29.4141C436.229 28.6408 435.749 28.0275 435.083 27.5741C434.416 27.0941 433.523 26.8541 432.403 26.8541C430.723 26.8541 429.456 27.3875 428.603 28.4541C427.776 29.5208 427.376 30.8008 427.403 32.2941H423.283C423.309 30.3208 423.723 28.6675 424.523 27.3341C425.349 26.0008 426.443 24.9875 427.803 24.2941C429.189 23.6008 430.749 23.2541 432.483 23.2541C435.123 23.2541 437.229 24.0008 438.803 25.4941C440.403 26.9608 441.203 29.0141 441.203 31.6541C441.203 33.2275 440.816 34.7875 440.043 36.3341C439.296 37.8808 438.309 39.3741 437.083 40.8141C435.883 42.2275 434.589 43.5608 433.203 44.8141C431.816 46.0675 430.496 47.2008 429.243 48.2141H442.043V51.7341H423.163Z" fill="white"/>
<ellipse cx="822.799" cy="39.81" rx="39.6047" ry="39.81" fill="#EFF0F7"/>
<path d="M821.83 49.5305C820.043 49.5305 818.43 49.2105 816.99 48.5705C815.55 47.9039 814.39 46.9172 813.51 45.6105C812.657 44.3039 812.203 42.6772 812.15 40.7305H815.55C815.577 42.3305 816.137 43.7172 817.23 44.8905C818.323 46.0372 819.857 46.6105 821.83 46.6105C823.803 46.6105 825.283 46.0639 826.27 44.9705C827.283 43.8772 827.79 42.5572 827.79 41.0105C827.79 39.7039 827.47 38.6372 826.83 37.8105C826.217 36.9839 825.377 36.3705 824.31 35.9705C823.27 35.5705 822.123 35.3705 820.87 35.3705H818.79V32.5305H820.87C822.683 32.5305 824.097 32.1172 825.11 31.2905C826.15 30.4639 826.67 29.3039 826.67 27.8105C826.67 26.5572 826.257 25.5305 825.43 24.7305C824.63 23.9039 823.43 23.4905 821.83 23.4905C820.283 23.4905 819.043 23.9572 818.11 24.8905C817.177 25.7972 816.657 26.9439 816.55 28.3305H813.15C813.23 26.8105 813.63 25.4639 814.35 24.2905C815.097 23.1172 816.11 22.2105 817.39 21.5705C818.67 20.9039 820.15 20.5705 821.83 20.5705C823.643 20.5705 825.15 20.8905 826.35 21.5305C827.577 22.1705 828.497 23.0239 829.11 24.0905C829.75 25.1572 830.07 26.3305 830.07 27.6105C830.07 29.0239 829.683 30.3172 828.91 31.4905C828.137 32.6372 826.977 33.4105 825.43 33.8105C827.083 34.1572 828.457 34.9439 829.55 36.1705C830.643 37.3972 831.19 39.0105 831.19 41.0105C831.19 42.5572 830.83 43.9839 830.11 45.2905C829.417 46.5705 828.377 47.5972 826.99 48.3705C825.603 49.1439 823.883 49.5305 821.83 49.5305Z" fill="#6F6C90"/>
<ellipse cx="1214.4" cy="39.81" rx="39.6047" ry="39.81" fill="#EFF0F7"/>
<path d="M1216.39 52.0505V46.0505H1202.19V43.4505L1215.79 24.0505H1219.71V43.0905H1223.87V46.0505H1219.71V52.0505H1216.39ZM1205.91 43.0905H1216.55V27.7705L1205.91 43.0905Z" fill="#6F6C90"/>
</svg>
