<svg width="1254" height="90" viewBox="0 0 1254 90" fill="none" xmlns="http://www.w3.org/2000/svg">
<rect x="121.144" y="35.6997" width="228.521" height="15.8665" rx="7.93324" fill="#4A3AFF"/>
<rect x="512.741" y="35.6997" width="228.521" height="15.8665" rx="7.93324" fill="#4A3AFF"/>
<rect x="904.337" y="35.6997" width="228.521" height="15.8665" rx="7.93324" fill="#4A3AFF"/>
<ellipse cx="39.6047" cy="44.955" rx="39.6047" ry="44.955" fill="#4A3AFF"/>
<path d="M35.3357 55.1553V31.9553L30.8157 32.9953V29.8753L37.0157 27.1553H39.7357V55.1553H35.3357Z" fill="white"/>
<ellipse cx="431.201" cy="44.955" rx="39.6047" ry="44.955" fill="#4A3AFF"/>
<path d="M421.163 55.1553V52.1153C422.976 50.6753 424.709 49.2219 426.363 47.7553C428.016 46.2886 429.483 44.8486 430.763 43.4353C432.069 41.9953 433.096 40.5953 433.843 39.2353C434.589 37.8486 434.963 36.5153 434.963 35.2353C434.963 34.3819 434.816 33.5819 434.523 32.8353C434.229 32.0619 433.749 31.4486 433.083 30.9953C432.416 30.5153 431.523 30.2753 430.403 30.2753C428.723 30.2753 427.456 30.8086 426.603 31.8753C425.776 32.9419 425.376 34.2219 425.403 35.7153H421.283C421.309 33.7419 421.723 32.0886 422.523 30.7553C423.349 29.4219 424.443 28.4086 425.803 27.7153C427.189 27.0219 428.749 26.6753 430.483 26.6753C433.123 26.6753 435.229 27.4219 436.803 28.9153C438.403 30.3819 439.203 32.4353 439.203 35.0753C439.203 36.6486 438.816 38.2086 438.043 39.7553C437.296 41.3019 436.309 42.7953 435.083 44.2353C433.883 45.6486 432.589 46.9819 431.203 48.2353C429.816 49.4886 428.496 50.6219 427.243 51.6353H440.043V55.1553H421.163Z" fill="white"/>
<ellipse cx="822.799" cy="44.955" rx="39.6047" ry="44.955" fill="#4A3AFF"/>
<path d="M819.95 55.6353C818.137 55.6353 816.483 55.3153 814.99 54.6753C813.523 54.0086 812.35 53.0086 811.47 51.6753C810.59 50.3419 810.123 48.6753 810.07 46.6753H814.27C814.323 48.1686 814.83 49.4353 815.79 50.4753C816.777 51.4886 818.163 51.9953 819.95 51.9953C821.657 51.9953 822.963 51.5286 823.87 50.5953C824.777 49.6353 825.23 48.4486 825.23 47.0353C825.23 45.3286 824.617 44.0619 823.39 43.2353C822.19 42.4086 820.71 41.9953 818.95 41.9953H816.87V38.4753H818.99C820.563 38.4753 821.83 38.1019 822.79 37.3553C823.777 36.6086 824.27 35.5553 824.27 34.1953C824.27 33.0486 823.883 32.1153 823.11 31.3953C822.363 30.6753 821.297 30.3153 819.91 30.3153C818.47 30.3153 817.337 30.7419 816.51 31.5953C815.683 32.4219 815.23 33.4619 815.15 34.7153H810.95C811.003 33.0886 811.403 31.6753 812.15 30.4753C812.923 29.2753 813.977 28.3419 815.31 27.6753C816.643 27.0086 818.177 26.6753 819.91 26.6753C821.777 26.6753 823.337 27.0086 824.59 27.6753C825.87 28.3153 826.83 29.1953 827.47 30.3153C828.137 31.4086 828.47 32.6086 828.47 33.9153C828.47 35.4086 828.057 36.7153 827.23 37.8353C826.403 38.9553 825.297 39.7019 823.91 40.0753C825.51 40.4219 826.83 41.2086 827.87 42.4353C828.91 43.6353 829.43 45.1953 829.43 47.1153C829.43 48.6619 829.07 50.0886 828.35 51.3953C827.63 52.6753 826.563 53.7019 825.15 54.4753C823.737 55.2486 822.003 55.6353 819.95 55.6353Z" fill="white"/>
<ellipse cx="1214.4" cy="44.955" rx="39.6047" ry="44.955" fill="#4A3AFF"/>
<path d="M1215.35 55.1553V49.5553H1201.31V46.1953L1214.67 27.1553H1219.55V45.8753H1223.47V49.5553H1219.55V55.1553H1215.35ZM1205.91 45.8753H1215.59V31.8353L1205.91 45.8753Z" fill="white"/>
</svg>
