<svg width="1254" height="81" viewBox="0 0 1254 81" fill="none" xmlns="http://www.w3.org/2000/svg">
<ellipse cx="830.605" cy="39.81" rx="39.605" ry="39.81" fill="#4A3AFF"/>
<path d="M830.8 52.48C828.987 52.48 827.333 52.16 825.84 51.52C824.373 50.8533 823.2 49.8533 822.32 48.52C821.44 47.1867 820.973 45.52 820.92 43.52H825.12C825.173 45.0133 825.68 46.28 826.64 47.32C827.627 48.3333 829.013 48.84 830.8 48.84C832.507 48.84 833.813 48.3733 834.72 47.44C835.627 46.48 836.08 45.2933 836.08 43.88C836.08 42.1733 835.467 40.9067 834.24 40.08C833.04 39.2533 831.56 38.84 829.8 38.84H827.72V35.32H829.84C831.413 35.32 832.68 34.9467 833.64 34.2C834.627 33.4533 835.12 32.4 835.12 31.04C835.12 29.8933 834.733 28.96 833.96 28.24C833.213 27.52 832.147 27.16 830.76 27.16C829.32 27.16 828.187 27.5867 827.36 28.44C826.533 29.2667 826.08 30.3067 826 31.56H821.8C821.853 29.9333 822.253 28.52 823 27.32C823.773 26.12 824.827 25.1867 826.16 24.52C827.493 23.8533 829.027 23.52 830.76 23.52C832.627 23.52 834.187 23.8533 835.44 24.52C836.72 25.16 837.68 26.04 838.32 27.16C838.987 28.2533 839.32 29.4533 839.32 30.76C839.32 32.2533 838.907 33.56 838.08 34.68C837.253 35.8 836.147 36.5467 834.76 36.92C836.36 37.2667 837.68 38.0533 838.72 39.28C839.76 40.48 840.28 42.04 840.28 43.96C840.28 45.5067 839.92 46.9333 839.2 48.24C838.48 49.52 837.413 50.5467 836 51.32C834.587 52.0933 832.853 52.48 830.8 52.48Z" fill="white"/>
<rect x="904.337" y="31.6138" width="228.521" height="14.0506" rx="7.02529" fill="#EFF0F7"/>
<rect x="121.144" y="31.6138" width="228.521" height="14.0506" rx="7.02529" fill="#4A3AFF"/>
<rect x="512.741" y="31.6138" width="228.521" height="14.0506" rx="7.02529" fill="#EFF0F7"/>
<rect x="513" y="32" width="231" height="14" rx="7" fill="#4A3AFF"/>
<rect x="903" y="32" width="123" height="14" rx="7" fill="#4A3AFF"/>
<ellipse cx="39.6047" cy="39.81" rx="39.6047" ry="39.81" fill="#4A3AFF"/>
<path d="M37.3357 51.7341V28.5341L32.8157 29.5741V26.4541L39.0157 23.7341H41.7357V51.7341H37.3357Z" fill="white"/>
<ellipse cx="431.201" cy="39.81" rx="39.6047" ry="39.81" fill="#4A3AFF"/>
<path d="M423.163 51.7341V48.6941C424.976 47.2541 426.709 45.8008 428.363 44.3341C430.016 42.8675 431.483 41.4275 432.763 40.0141C434.069 38.5741 435.096 37.1741 435.843 35.8141C436.589 34.4275 436.963 33.0941 436.963 31.8141C436.963 30.9608 436.816 30.1608 436.523 29.4141C436.229 28.6408 435.749 28.0275 435.083 27.5741C434.416 27.0941 433.523 26.8541 432.403 26.8541C430.723 26.8541 429.456 27.3875 428.603 28.4541C427.776 29.5208 427.376 30.8008 427.403 32.2941H423.283C423.309 30.3208 423.723 28.6675 424.523 27.3341C425.349 26.0008 426.443 24.9875 427.803 24.2941C429.189 23.6008 430.749 23.2541 432.483 23.2541C435.123 23.2541 437.229 24.0008 438.803 25.4941C440.403 26.9608 441.203 29.0141 441.203 31.6541C441.203 33.2275 440.816 34.7875 440.043 36.3341C439.296 37.8808 438.309 39.3741 437.083 40.8141C435.883 42.2275 434.589 43.5608 433.203 44.8141C431.816 46.0675 430.496 47.2008 429.243 48.2141H442.043V51.7341H423.163Z" fill="white"/>
<ellipse cx="1214.4" cy="39.81" rx="39.6047" ry="39.81" fill="#EFF0F7"/>
<path d="M1216.39 52.0505V46.0505H1202.19V43.4505L1215.79 24.0505H1219.71V43.0905H1223.87V46.0505H1219.71V52.0505H1216.39ZM1205.91 43.0905H1216.55V27.7705L1205.91 43.0905Z" fill="#6F6C90"/>
</svg>
