<svg width="190" height="77" viewBox="0 0 190 77" fill="none" xmlns="http://www.w3.org/2000/svg">
<path d="M127.7 32.8762V34.0739C127.7 34.0739 126.705 32.5748 124.438 32.5748C122.171 32.5748 119.827 34.2216 119.827 38.13C119.827 42.0384 123.432 43.0704 123.996 43.0704C124.559 43.0704 126.326 43.2421 127.651 41.9147V42.9467H130.176V32.8762H127.7ZM125.085 40.8228C123.567 40.8228 122.338 39.5054 122.338 37.8825C122.338 36.2596 123.559 34.9322 125.085 34.9322C126.611 34.9322 127.832 36.2497 127.832 37.8725C127.832 39.4954 126.595 40.8228 125.085 40.8228Z" fill="#2F1C48"/>
<path d="M144.193 32.8762V34.0739C144.193 34.0739 143.197 32.5748 140.93 32.5748C138.663 32.5748 136.319 34.2216 136.319 38.13C136.319 42.0384 139.924 43.0704 140.488 43.0704C141.051 43.0704 142.818 43.2421 144.143 41.9147V42.9467H146.668V32.8762H144.193ZM141.569 40.8228C140.052 40.8228 138.823 39.5054 138.823 37.8825C138.823 36.2596 140.052 34.9322 141.569 34.9322C143.087 34.9322 144.316 36.2497 144.316 37.8725C144.316 39.4954 143.085 40.8228 141.569 40.8228Z" fill="#2F1C48"/>
<path d="M156.221 29.0417V34.0799C156.221 34.0799 155.225 32.5808 152.958 32.5808C150.692 32.5808 148.349 34.2276 148.349 38.126C148.349 42.0245 151.955 43.0664 152.518 43.0664C153.082 43.0664 154.849 43.2381 156.173 41.9107V42.9427H158.699V29.0417H156.221ZM153.598 40.8188C152.08 40.8188 150.851 39.5014 150.851 37.8785C150.851 36.2557 152.08 34.9322 153.598 34.9322C155.116 34.9322 156.345 36.2497 156.345 37.8725C156.345 39.4954 155.114 40.8228 153.598 40.8228V40.8188Z" fill="#2F1C48"/>
<path d="M132.22 28.9439H134.785V42.9367H132.196C132.196 42.9367 132.204 28.9279 132.22 28.9439Z" fill="#2F1C48"/>
<path d="M160.922 32.8443H163.489V42.9367H160.9C160.9 42.9367 160.906 32.8263 160.922 32.8443Z" fill="#2F1C48"/>
<path d="M162.262 31.5029C162.977 31.5029 163.557 30.922 163.557 30.2054C163.557 29.4888 162.977 28.9079 162.262 28.9079C161.547 28.9079 160.967 29.4888 160.967 30.2054C160.967 30.922 161.547 31.5029 162.262 31.5029Z" fill="#2F1C48"/>
<path d="M165.762 32.8603V42.9367H168.23V37.5132C168.23 37.5132 168.198 35.1039 170.568 34.8923C170.568 34.8923 172.161 34.5969 172.161 37.2517V42.9167H174.681V35.5969C174.681 35.5969 174.468 32.5828 171.395 32.5828C170.823 32.5597 170.253 32.657 169.721 32.8685C169.189 33.0799 168.708 33.4008 168.307 33.8104V32.8762C168.307 32.8762 165.794 32.8922 165.762 32.8603Z" fill="#2F1C48"/>
<path d="M15.3369 32.8523V42.9287H17.8047V37.1519C17.8047 37.1519 17.976 34.8664 20.159 34.8664C20.159 34.8664 21.7047 34.9642 21.7047 37.0042V42.9028H24.2801V37.0062C24.2801 37.0062 24.6227 34.8105 26.5109 34.8105C28.3991 34.8105 28.178 36.8066 28.178 36.8066V42.8768H30.6558V35.6908C30.6558 35.6908 30.4347 32.5808 27.4869 32.5808C24.539 32.5808 23.9793 34.3993 23.9793 34.3993C23.6756 33.8523 23.2309 33.3971 22.6917 33.081C22.1525 32.765 21.5385 32.5999 20.9139 32.6028C18.7229 32.6028 17.8246 34.0779 17.8246 34.0779V32.8483C17.8246 32.8483 15.3369 32.8263 15.3369 32.8523Z" fill="#2F1C48"/>
<path d="M32.8647 32.8762H35.3664V42.9048H32.8866C32.8866 42.9048 32.9245 32.8143 32.8647 32.8762Z" fill="#2F1C48"/>
<path d="M42.2541 35.7526L43.7499 34.3035C43.7499 34.3035 42.8178 32.5828 40.342 32.5828C37.8661 32.5828 37.3742 34.6228 37.3742 34.6228C37.3742 34.6228 36.6133 36.8345 38.9437 38.1121C41.2741 39.3896 41.8617 39.4894 41.5669 40.4216C41.2721 41.3538 39.3361 40.9625 38.4278 39.8228L36.932 41.4456C36.932 41.4456 38.2067 43.314 40.4396 43.1423C42.6724 42.9706 43.3336 41.8648 43.3336 41.8648C43.6894 41.4214 43.9127 40.8863 43.9779 40.3212C44.0431 39.7561 43.9475 39.184 43.7021 38.671C43.7021 38.671 43.0887 37.3675 40.6367 36.4353C40.6367 36.4353 39.0672 35.9682 39.8022 35.038C40.5372 34.1078 42.2541 35.7526 42.2541 35.7526Z" fill="#2F1C48"/>
<path d="M46.3253 29.1435H48.7992V32.8303H50.2452V35.0261H48.7792V42.8908H46.3751V35.04H45.0008V32.8443H46.3014C46.3014 32.8443 46.3014 29.1155 46.3253 29.1435Z" fill="#2F1C48"/>
<path d="M56.4536 32.5808C56.4536 32.5808 51.2292 32.5309 51.2292 37.9384C51.2292 43.3459 56.6488 43.2222 56.6488 43.2222C56.6488 43.2222 59.6366 43.3459 60.989 41.0264L58.9573 39.9545C58.9573 39.9545 58.3439 40.9126 56.6528 40.9865C55.9351 41.0418 55.2223 40.8289 54.6519 40.3888C54.0815 39.9487 53.6938 39.3126 53.5635 38.6031L61.6801 38.5532C61.6801 38.5532 62.1681 32.8263 56.4536 32.5808ZM53.707 36.611C53.909 36.0468 54.2829 35.5605 54.7758 35.2209C55.2687 34.8813 55.8556 34.7056 56.4536 34.7186C57.0547 34.7096 57.643 34.8931 58.1327 35.2425C58.6225 35.5918 58.9882 36.0887 59.1764 36.6609L53.707 36.611Z" fill="#2F1C48"/>
<path d="M63.1401 32.8762H65.2992V34.0559C65.2992 34.0559 66.4525 31.8921 68.512 32.8583L67.7511 35.054C67.7511 35.054 66.3569 33.9242 65.6916 36.3814V42.8948H63.2238C63.2238 42.8948 63.174 32.8762 63.1401 32.8762Z" fill="#2F1C48"/>
<path d="M34.2032 31.5029C34.9183 31.5029 35.4979 30.922 35.4979 30.2054C35.4979 29.4888 34.9183 28.9079 34.2032 28.9079C33.4882 28.9079 32.9086 29.4888 32.9086 30.2054C32.9086 30.922 33.4882 31.5029 34.2032 31.5029Z" fill="#2F1C48"/>
<path d="M82.9765 24.8179C82.9747 25.4803 83.1041 26.1364 83.3571 26.7484C83.6101 27.3603 83.9817 27.9159 84.4504 28.3829L85.3447 29.2792C87.6194 27.1464 90.6149 25.955 93.7298 25.9443C96.8448 25.9336 99.8484 27.1043 102.138 29.2213L103.034 28.3231C104.063 27.2892 105.437 26.6734 106.892 26.5944L97.0326 16.7156C96.1676 15.8488 94.9944 15.3618 93.7711 15.3618C92.5478 15.3618 91.3746 15.8488 90.5095 16.7156L83.0163 24.225C82.9916 24.4217 82.9783 24.6196 82.9765 24.8179Z" fill="#2F1C48"/>
<path d="M80.3015 49.1327C80.9625 49.1345 81.6172 49.0048 82.2278 48.7513C82.8385 48.4977 83.3928 48.1253 83.8589 47.6556L84.7532 46.7593C82.625 44.4797 81.4362 41.4777 81.4255 38.356C81.4148 35.2343 82.583 32.2241 84.6954 29.9299L83.7991 29.0317C82.7674 28.0005 82.153 26.6233 82.0742 25.1652L72.2168 35.044C71.3519 35.911 70.866 37.0867 70.866 38.3127C70.866 39.5386 71.3519 40.7144 72.2168 41.5813L79.7099 49.0908C79.9061 49.1162 80.1037 49.1302 80.3015 49.1327Z" fill="#2F1C48"/>
<path d="M104.57 51.8135C104.571 51.1511 104.442 50.4949 104.189 49.883C103.936 49.271 103.564 48.7154 103.096 48.2484L102.201 47.3521C99.9267 49.4849 96.9312 50.6763 93.8163 50.687C90.7013 50.6978 87.6977 49.5271 85.4085 47.41L84.5122 48.3083C83.4832 49.3422 82.109 49.9579 80.654 50.0369L90.5115 59.9158C91.3766 60.7826 92.5498 61.2695 93.7731 61.2695C94.9963 61.2695 96.1695 60.7826 97.0346 59.9158L104.528 52.4063C104.553 52.2097 104.567 52.0118 104.57 51.8135Z" fill="#2F1C48"/>
<path d="M115.325 35.048L107.832 27.5466C107.634 27.5222 107.434 27.5096 107.235 27.5087C106.574 27.5069 105.919 27.6365 105.308 27.8901C104.698 28.1436 104.143 28.516 103.677 28.9858L102.783 29.882C104.911 32.1616 106.1 35.1637 106.111 38.2854C106.121 41.4071 104.953 44.4172 102.841 46.7114L103.737 47.6097C104.769 48.6408 105.383 50.0181 105.462 51.4762L115.325 41.5853C116.19 40.7184 116.676 39.5426 116.676 38.3167C116.676 37.0907 116.19 35.915 115.325 35.048Z" fill="#2F1C48"/>
<path d="M89.0117 29.6485C89.0117 29.6485 92.077 29.6106 93.792 31.2214C95.1355 30.1681 96.7948 29.6004 98.5006 29.6106C97.1243 28.6631 95.4975 28.1482 93.8278 28.1314C91.105 28.1314 89.0117 29.6485 89.0117 29.6485Z" fill="#2F1C48"/>
<path d="M93.4414 31.3392C93.4414 31.3392 91.1807 29.6165 88.2627 30.0657C86.9308 31.1097 85.9562 32.5434 85.4742 34.1677C85.4742 34.1677 89.1232 31.7843 93.4414 31.3392Z" fill="#2F1C48"/>
<path d="M94.1326 31.3532C94.1326 31.3532 96.3375 29.6106 99.2714 30.0038C99.2714 30.0038 101.16 31.3532 102.168 34.1957C99.6858 32.7624 96.9622 31.7989 94.1326 31.3532Z" fill="#2F1C48"/>
<path d="M85.3866 34.5749C85.3866 34.5749 89.171 32.1217 93.7402 31.6167C93.7402 31.6167 98.15 32.1975 102.094 34.4831C102.094 34.4831 102.542 35.5311 102.841 37.5931C102.841 37.5931 95.9073 35.1578 93.7581 34.2775C93.7581 34.2775 87.5357 36.7507 84.8806 37.5172C84.8826 37.5152 85.1256 35.0061 85.3866 34.5749Z" fill="#2F1C48"/>
<path d="M92.1507 35.1937C92.1507 35.1937 93.4215 34.7825 93.6824 34.5949C94.1995 34.8254 94.7319 35.0195 95.2759 35.1758L93.8557 36.1499L92.1507 35.1937Z" fill="#2F1C48"/>
<path d="M84.564 37.4594C84.564 37.4594 84.564 36.5232 84.789 35.9802L83.574 34.4632L84.564 37.4594Z" fill="#2F1C48"/>
<path d="M102.777 36.0541C102.919 36.4922 103.014 36.9447 103.058 37.4034L104.068 34.5011L102.777 36.0541Z" fill="#2F1C48"/>
<path d="M90.2067 40.6252C90.1051 40.6219 90.0061 40.5927 89.9189 40.5403C89.8317 40.4879 89.7593 40.4141 89.7085 40.3259C89.6577 40.2376 89.6302 40.1379 89.6286 40.036C89.627 39.9342 89.6514 39.8336 89.6994 39.7438C89.7474 39.654 89.8175 39.578 89.903 39.5229C89.9885 39.4678 90.0866 39.4355 90.1881 39.429C90.2895 39.4226 90.3909 39.4421 90.4827 39.4858C90.5745 39.5296 90.6536 39.5961 90.7126 39.679C90.6315 39.3876 90.4478 39.1355 90.1955 38.9694C89.9432 38.8033 89.6394 38.7343 89.3404 38.7754C89.0413 38.8164 88.7671 38.9646 88.5687 39.1926C88.3702 39.4205 88.2609 39.7128 88.2609 40.0154C88.2609 40.3179 88.3702 40.6102 88.5687 40.8382C88.7671 41.0661 89.0413 41.2143 89.3404 41.2554C89.6394 41.2964 89.9432 41.2275 90.1955 41.0613C90.4478 40.8952 90.6315 40.6431 90.7126 40.3517C90.6581 40.4362 90.5831 40.5056 90.4947 40.5534C90.4062 40.6012 90.3072 40.6259 90.2067 40.6252Z" fill="#2F1C48"/>
<path d="M98.2895 38.7648C98.0183 38.7657 97.7549 38.8552 97.5391 39.0199C97.3234 39.1846 97.1673 39.4153 97.0944 39.677C97.1668 39.572 97.2708 39.4929 97.3913 39.4512C97.5117 39.4096 97.6423 39.4077 97.7639 39.4457C97.8855 39.4837 97.9919 39.5597 98.0674 39.6625C98.1429 39.7653 98.1836 39.8897 98.1836 40.0174C98.1836 40.1451 98.1429 40.2694 98.0674 40.3722C97.9919 40.4751 97.8855 40.5511 97.7639 40.5891C97.6423 40.6271 97.5117 40.6251 97.3913 40.5835C97.2708 40.5419 97.1668 40.4628 97.0944 40.3577C97.1588 40.5808 97.284 40.7816 97.456 40.9373C97.6279 41.0931 97.8398 41.1978 98.0678 41.2396C98.2958 41.2814 98.5309 41.2586 98.7467 41.1739C98.9625 41.0893 99.1505 40.946 99.2896 40.7601C99.4287 40.5743 99.5133 40.3533 99.534 40.1219C99.5547 39.8906 99.5106 39.658 99.4068 39.4504C99.3029 39.2427 99.1433 39.0682 98.9459 38.9464C98.7486 38.8246 98.5212 38.7603 98.2895 38.7608V38.7648Z" fill="#2F1C48"/>
<path d="M99.7554 44.314C99.7554 44.314 99.612 43.316 98.7356 43.274C98.5816 43.249 98.4239 43.2853 98.2963 43.3752C98.1686 43.465 98.0811 43.6014 98.0524 43.7551C98.391 43.5236 98.5962 43.5874 98.5962 43.5874C98.5962 43.5874 99.2953 43.7292 99.0244 44.3859C98.7536 45.0426 97.0326 44.839 97.0326 44.839C97.0326 44.839 95.7678 44.5995 94.9632 44.7931C94.2996 44.9164 93.619 44.9164 92.9554 44.7931C92.1587 44.5935 90.8859 44.839 90.8859 44.839C90.8859 44.839 89.173 45.0486 88.8941 44.3859C88.6153 43.7232 89.3224 43.5874 89.3224 43.5874C89.3224 43.5874 89.5216 43.5256 89.8661 43.7551C89.8375 43.6014 89.75 43.465 89.6223 43.3752C89.4946 43.2853 89.337 43.249 89.1829 43.274C88.3066 43.324 88.1631 44.314 88.1631 44.314C88.1631 44.314 87.9082 45.9329 90.1908 46.3221C92.4216 46.7034 93.4454 46.3521 93.9493 46.0407C94.4533 46.3521 95.477 46.7034 97.7079 46.3221C100.01 45.9309 99.7554 44.314 99.7554 44.314Z" fill="#2F1C48"/>
<path d="M89.5355 41.747C89.1766 41.747 88.8258 41.6404 88.5274 41.4406C88.229 41.2407 87.9964 40.9567 87.8591 40.6244C87.7217 40.2922 87.6858 39.9265 87.7558 39.5738C87.8258 39.221 87.9987 38.897 88.2524 38.6427C88.5062 38.3884 88.8295 38.2152 89.1815 38.145C89.5335 38.0749 89.8983 38.1109 90.2299 38.2485C90.5614 38.3861 90.8448 38.6192 91.0442 38.9183C91.2436 39.2173 91.35 39.5689 91.35 39.9285C91.3495 40.4107 91.1582 40.8729 90.818 41.2138C90.4778 41.5547 90.0166 41.7465 89.5355 41.747ZM89.5355 38.3077C89.216 38.3077 88.9037 38.4026 88.6381 38.5805C88.3724 38.7584 88.1654 39.0112 88.0431 39.307C87.9208 39.6029 87.8889 39.9284 87.9512 40.2424C88.0135 40.5564 88.1674 40.8449 88.3933 41.0713C88.6192 41.2977 88.907 41.4518 89.2204 41.5143C89.5337 41.5768 89.8585 41.5447 90.1537 41.4222C90.4488 41.2997 90.7011 41.0922 90.8786 40.8259C91.0561 40.5597 91.1508 40.2467 91.1508 39.9266C91.1498 39.4977 90.9792 39.0868 90.6764 38.7837C90.3737 38.4807 89.9634 38.3102 89.5355 38.3097V38.3077Z" fill="#2F1C48"/>
<path d="M98.2576 41.747C97.8987 41.747 97.5479 41.6404 97.2495 41.4406C96.9511 41.2407 96.7185 40.9567 96.5812 40.6244C96.4438 40.2922 96.4079 39.9265 96.4779 39.5738C96.5479 39.221 96.7208 38.897 96.9745 38.6427C97.2283 38.3884 97.5516 38.2152 97.9036 38.145C98.2556 38.0749 98.6204 38.1109 98.952 38.2485C99.2835 38.3861 99.5669 38.6192 99.7663 38.9183C99.9657 39.2173 100.072 39.5689 100.072 39.9285C100.072 40.4107 99.8803 40.8729 99.5401 41.2138C99.1999 41.5547 98.7387 41.7465 98.2576 41.747ZM98.2576 38.3077C97.9381 38.3077 97.6258 38.4026 97.3602 38.5805C97.0945 38.7584 96.8875 39.0112 96.7652 39.307C96.6429 39.6029 96.611 39.9284 96.6733 40.2424C96.7356 40.5564 96.8895 40.8449 97.1154 41.0713C97.3413 41.2977 97.6291 41.4518 97.9425 41.5143C98.2558 41.5768 98.5806 41.5447 98.8758 41.4222C99.1709 41.2997 99.4232 41.0922 99.6007 40.8259C99.7782 40.5597 99.8729 40.2467 99.8729 39.9266C99.8719 39.4977 99.7013 39.0868 99.3985 38.7837C99.0958 38.4807 98.6855 38.3102 98.2576 38.3097V38.3077Z" fill="#2F1C48"/>
</svg>
