<svg width="40" height="40" viewBox="0 0 40 40" fill="none" xmlns="http://www.w3.org/2000/svg">
<path d="M37.5 19.9999C37.5039 20.5126 37.3481 21.0138 37.0541 21.4339C36.76 21.8539 36.3424 22.1719 35.8593 22.3437L25.9468 25.9483L22.3437 35.8593C22.1661 36.3377 21.8464 36.7504 21.4274 37.0417C21.0084 37.3331 20.5103 37.4893 20 37.4893C19.4896 37.4893 18.9915 37.3331 18.5725 37.0417C18.1536 36.7504 17.8338 36.3377 17.6562 35.8593L14.0515 25.9374L4.1406 22.3437C3.66215 22.1661 3.24952 21.8463 2.95813 21.4273C2.66674 21.0084 2.51056 20.5102 2.51056 19.9999C2.51056 19.4896 2.66674 18.9915 2.95813 18.5725C3.24952 18.1535 3.66215 17.8337 4.1406 17.6562L14.0625 14.0515L17.6562 4.14053C17.8338 3.66209 18.1536 3.24946 18.5725 2.95807C18.9915 2.66668 19.4896 2.5105 20 2.5105C20.5103 2.5105 21.0084 2.66668 21.4274 2.95807C21.8464 3.24946 22.1661 3.66209 22.3437 4.14053L25.9484 14.0624L35.8593 17.6562C36.3424 17.8279 36.76 18.1459 37.0541 18.566C37.3481 18.986 37.5039 19.4872 37.5 19.9999Z" fill="#FBEBD7"/>
</svg>
