<svg width="140" height="37" viewBox="0 0 140 37" fill="none" xmlns="http://www.w3.org/2000/svg">
<g clip-path="url(#clip0_56_3949)">
<path d="M26.1698 22.2522C25.058 21.5678 23.7752 21.3967 22.4924 21.3967C21.4661 21.3967 19.8412 20.7122 19.8412 18.7445C19.8412 18.06 20.0978 17.3756 20.6109 16.8622C21.124 16.3489 21.8082 16.0922 22.4924 16.0922C23.7752 16.0067 25.058 15.8356 26.1698 15.2367C27.1961 14.6378 28.0513 13.7822 28.65 12.7556C29.2486 11.7289 29.5052 10.6167 29.5052 9.41891C29.5052 8.22113 29.1631 7.10891 28.65 6.08224C28.0513 5.05557 27.1961 4.20002 26.1698 3.60113C25.1436 3.00224 24.0318 2.74557 22.8345 2.74557C21.6372 2.74557 20.5254 3.0878 19.4991 3.60113C18.4728 4.20002 17.6176 5.05557 17.0189 6.08224C16.4203 7.10891 16.1637 8.22113 16.0782 9.41891C16.0782 10.7022 16.5058 11.9 17.1045 13.0122C17.6176 13.9534 17.8742 15.6645 16.1637 16.6911C15.5651 17.0334 14.7954 17.1189 14.1112 16.9478C13.427 16.7767 12.8284 16.3489 12.4863 15.75C11.8021 14.7234 11.0324 13.6967 9.9206 13.0122C8.89433 12.4134 7.78254 12.1567 6.58523 12.1567C5.38792 12.1567 4.27613 12.4989 3.24986 13.0122C2.22359 13.6111 1.36837 14.4667 0.769713 15.4934C0.171057 16.52 -0.0855103 17.6322 -0.0855103 18.83C-0.0855103 20.0278 0.256579 21.14 0.769713 22.1667C1.36837 23.1934 2.22359 24.0489 3.24986 24.6478C4.27613 25.2467 5.38792 25.5034 6.58523 25.5034C7.78254 25.5034 8.89433 25.1611 9.9206 24.6478C11.0324 23.9634 11.8876 23.0222 12.4863 21.91C12.9994 21.0545 14.3678 19.9422 16.0782 20.8834C16.6769 21.2256 17.1045 21.8245 17.2755 22.5089C17.4466 23.1934 17.361 23.8778 17.0189 24.5622C16.4203 25.6745 15.9927 26.8722 15.9927 28.1556C15.9927 29.3534 16.3348 30.4656 16.8479 31.4922C17.4466 32.5189 18.3018 33.3745 19.3281 33.9734C20.3543 34.5722 21.4661 34.8289 22.6634 34.8289C23.8607 34.8289 24.9725 34.4867 25.9988 33.9734C27.0251 33.3745 27.8803 32.5189 28.4789 31.4922C29.0776 30.4656 29.3342 29.3534 29.3342 28.1556C29.3342 26.9578 28.9921 25.8456 28.4789 24.8189C28.0513 23.7067 27.1961 22.8511 26.1698 22.2522Z" fill="#2F1C48"/>
<path d="M38.7416 8.56334H43.3598V10.7878C43.9584 10.0178 44.7282 9.4189 45.6689 8.99112C46.5241 8.56334 47.5504 8.39223 48.4911 8.39223C49.1753 8.39223 49.8595 8.47778 50.4581 8.6489V13.9533C50.4581 13.9533 49.774 13.6967 48.2346 13.6967C45.5834 13.6967 43.7874 15.4933 43.7874 18.1456V29.0111H38.6561V8.56334H38.7416ZM63.7996 8.56334H68.4178V10.5311C70.0428 9.16223 72.0953 8.30667 74.1478 8.30667C79.2792 8.30667 83.7263 12.7556 83.7263 18.7445C83.7263 24.7333 79.2792 29.1822 74.1478 29.1822C72.1808 29.1822 70.2993 28.4978 68.8454 27.2145V36.2833H63.7141V8.56334H63.7996ZM78.595 18.7445C78.595 15.4078 76.3714 13.1833 73.5492 13.1833C70.6414 13.1833 68.4178 15.4078 68.4178 18.7445C68.4178 22.0811 70.6414 24.3056 73.5492 24.3056C76.4569 24.3056 78.595 22.0811 78.595 18.7445ZM87.4893 8.56334H92.1075V10.5311C93.7324 9.16223 95.785 8.30667 97.8375 8.30667C102.969 8.30667 107.416 12.7556 107.416 18.7445C107.416 24.7333 102.969 29.1822 97.8375 29.1822C95.8705 29.1822 93.989 28.4978 92.5351 27.2145V36.2833H87.4038V8.56334H87.4893ZM102.285 18.7445C102.285 15.4078 100.061 13.1833 97.2388 13.1833C94.3311 13.1833 92.1075 15.4078 92.1075 18.7445C92.1075 22.0811 94.3311 24.3056 97.2388 24.3056C100.147 24.3056 102.285 22.0811 102.285 18.7445ZM111.179 1.03445H116.31V28.9256H111.179V1.03445ZM120.073 18.7445C120.073 13.0122 124.692 8.30667 130.25 8.30667C135.553 8.30667 140 12.4989 140 18.7445C140 19.4289 139.914 20.1133 139.743 20.7122H125.547C125.974 22.68 127.599 24.22 130.165 24.22C132.56 24.22 133.5 23.1078 133.5 23.1078H139.059C138.033 25.76 134.869 29.0967 130.165 29.0967C124.692 29.1822 120.073 24.5622 120.073 18.7445ZM135.125 17.2045C134.869 16.0922 134.27 15.0656 133.415 14.3811C132.56 13.6967 131.448 13.2689 130.25 13.2689C129.139 13.2689 128.027 13.6967 127.086 14.3811C126.231 15.0656 125.547 16.0922 125.376 17.2045H135.125ZM53.4514 3.2589C53.4514 2.4889 53.7935 1.7189 54.3066 1.20556C54.8198 0.692228 55.5895 0.350006 56.3592 0.350006C57.1289 0.350006 57.8986 0.692228 58.4117 1.20556C58.9249 1.7189 59.2669 2.4889 59.2669 3.2589C59.2669 4.0289 58.9249 4.7989 58.4117 5.31223C57.8986 5.82556 57.1289 6.16778 56.3592 6.16778C55.5895 6.16778 54.8198 5.82556 54.3066 5.31223C53.7935 4.71334 53.4514 4.0289 53.4514 3.2589ZM53.7935 8.56334H58.9249V28.9256H53.7935V8.56334Z" fill="#2F1C48"/>
</g>
<defs>
<clipPath id="clip0_56_3949">
<rect width="140" height="35.9333" fill="white" transform="translate(0 0.350006)"/>
</clipPath>
</defs>
</svg>
