<svg width="150" height="46" viewBox="0 0 150 46" fill="none" xmlns="http://www.w3.org/2000/svg">
<g clip-path="url(#clip0_56_3955)">
<path d="M36.3886 20.7995C29.2465 16.5533 17.4657 16.1629 10.6476 18.2345C9.55268 18.5669 8.39492 17.9481 8.06316 16.8521C7.7314 15.7555 8.34883 14.5972 9.44447 14.2639C17.2712 11.8854 30.2818 12.3449 38.5039 17.2311C39.489 17.8162 39.812 19.0895 39.2281 20.074C38.6439 21.0597 37.371 21.3847 36.3886 20.7995ZM36.1547 27.0887C35.6539 27.9028 34.5908 28.1578 33.7788 27.6583C27.8243 23.9941 18.7446 22.9326 11.7 25.0732C10.7865 25.3496 9.8216 24.834 9.54421 23.9211C9.26886 23.0066 9.78419 22.0424 10.6961 21.7643C18.7435 19.3197 28.7475 20.5037 35.5864 24.7112C36.3984 25.2118 36.654 26.2767 36.1547 27.0887ZM33.4435 33.1287C33.0456 33.7822 32.1952 33.9872 31.5449 33.5888C26.3417 30.4053 19.7928 29.6861 12.0802 31.4499C11.3368 31.6206 10.5962 31.1541 10.4266 30.4103C10.2564 29.6663 10.7204 28.9249 11.4653 28.7551C19.9054 26.8235 27.1454 27.6549 32.9855 31.2275C33.6367 31.6255 33.8417 32.4772 33.4435 33.1287ZM23.2822 1.13505C11.0454 1.13505 1.12509 11.0658 1.12509 23.3162C1.12509 35.5677 11.0454 45.4983 23.2822 45.4983C35.5195 45.4983 45.4392 35.5677 45.4392 23.3162C45.4392 11.0658 35.5195 1.13505 23.2822 1.13505Z" fill="#2F1C48"/>
<path d="M61.4068 21.6125C57.5812 20.6991 56.8999 20.0581 56.8999 18.7115C56.8999 17.4388 58.0969 16.5827 59.8764 16.5827C61.6015 16.5827 63.3118 17.233 65.1054 18.5716C65.1596 18.6122 65.2276 18.6283 65.2946 18.6177C65.3615 18.6077 65.4205 18.5711 65.4599 18.5155L67.3279 15.8794C67.4046 15.7711 67.3837 15.6212 67.2803 15.5383C65.1459 13.8237 62.7424 12.9902 59.9331 12.9902C55.8024 12.9902 52.9171 15.4715 52.9171 19.0225C52.9171 22.8302 55.406 24.1782 59.7071 25.2189C63.3679 26.0631 63.9857 26.7702 63.9857 28.0347C63.9857 29.4356 62.7363 30.3065 60.7257 30.3065C58.4929 30.3065 56.6713 29.5535 54.6337 27.787C54.5832 27.7435 54.5139 27.7235 54.4498 27.7271C54.3826 27.7327 54.321 27.7639 54.2781 27.8155L52.1837 30.311C52.0958 30.4146 52.107 30.5692 52.2083 30.6587C54.5792 32.7775 57.4947 33.8969 60.6411 33.8969C65.0922 33.8969 67.9684 31.4619 67.9684 27.6935C67.9684 24.5087 66.0677 22.7473 61.4068 21.6125Z" fill="#2F1C48"/>
<path d="M81.2698 25.8809C81.2698 28.5703 79.6151 30.4468 77.2458 30.4468C74.9034 30.4468 73.1365 28.485 73.1365 25.8809C73.1365 23.2772 74.9034 21.3151 77.2458 21.3151C79.577 21.3151 81.2698 23.2348 81.2698 25.8809ZM78.0387 17.8353C76.1094 17.8353 74.5269 18.596 73.222 20.1548V18.4003C73.222 18.2617 73.1098 18.1489 72.9714 18.1489H69.5461C69.4078 18.1489 69.2958 18.2617 69.2958 18.4003V37.8958C69.2958 38.0343 69.4078 38.1471 69.5461 38.1471H72.9714C73.1098 38.1471 73.222 38.0343 73.222 37.8958V31.7422C74.5272 33.2085 76.1099 33.9247 78.0387 33.9247C81.6235 33.9247 85.2526 31.162 85.2526 25.8809C85.2526 20.5987 81.6235 17.8353 78.0387 17.8353Z" fill="#2F1C48"/>
<path d="M94.5548 30.475C92.0992 30.475 90.2479 28.4998 90.2479 25.8809C90.2479 23.2511 92.0352 21.3426 94.4982 21.3426C96.9696 21.3426 98.8334 23.3177 98.8334 25.9383C98.8334 28.5679 97.0339 30.475 94.5548 30.475ZM94.5548 17.8353C89.9381 17.8353 86.3212 21.3942 86.3212 25.9383C86.3212 30.4331 89.9132 33.9547 94.4982 33.9547C99.1313 33.9547 102.759 30.4077 102.759 25.8809C102.759 21.3693 99.1561 17.8353 94.5548 17.8353Z" fill="#2F1C48"/>
<path d="M112.618 18.1489H108.849V14.2907C108.849 14.1522 108.737 14.0396 108.599 14.0396H105.174C105.035 14.0396 104.922 14.1522 104.922 14.2907V18.1489H103.275C103.137 18.1489 103.026 18.2617 103.026 18.4003V21.3475C103.026 21.4859 103.137 21.5987 103.275 21.5987H104.922V29.225C104.922 32.3069 106.454 33.8693 109.476 33.8693C110.705 33.8693 111.724 33.6153 112.685 33.07C112.763 33.0263 112.812 32.942 112.812 32.8525V30.0459C112.812 29.9592 112.767 29.8777 112.693 29.8321C112.618 29.7853 112.525 29.7829 112.449 29.8208C111.789 30.1531 111.151 30.3065 110.438 30.3065C109.339 30.3065 108.849 29.8072 108.849 28.6876V21.5987H112.618C112.756 21.5987 112.868 21.4859 112.868 21.3475V18.4003C112.868 18.2617 112.756 18.1489 112.618 18.1489Z" fill="#2F1C48"/>
<path d="M125.751 18.164V17.6901C125.751 16.2961 126.285 15.6744 127.483 15.6744C128.197 15.6744 128.77 15.8164 129.413 16.0309C129.492 16.0558 129.574 16.0434 129.639 15.996C129.705 15.9486 129.742 15.8725 129.742 15.792V12.9022C129.742 12.7918 129.671 12.694 129.565 12.6617C128.887 12.4596 128.018 12.2519 126.718 12.2519C123.554 12.2519 121.882 14.0356 121.882 17.4083V18.1341H120.236C120.098 18.1341 119.985 18.2466 119.985 18.3852V21.3475C119.985 21.4859 120.098 21.5987 120.236 21.5987H121.882V33.3618C121.882 33.5004 121.993 33.6129 122.131 33.6129H125.557C125.695 33.6129 125.808 33.5004 125.808 33.3618V21.5987H129.006L133.905 33.3587C133.349 34.5943 132.802 34.8402 132.056 34.8402C131.452 34.8402 130.817 34.6597 130.167 34.3038C130.106 34.2701 130.034 34.2646 129.967 34.285C129.902 34.3082 129.847 34.3568 129.819 34.4206L128.658 36.9706C128.603 37.091 128.65 37.2325 128.766 37.295C129.978 37.9522 131.072 38.2327 132.424 38.2327C134.954 38.2327 136.352 37.0529 137.584 33.8797L143.527 18.5062C143.557 18.4289 143.548 18.3417 143.501 18.2729C143.454 18.205 143.378 18.164 143.295 18.164H139.729C139.622 18.164 139.526 18.2318 139.491 18.3322L135.838 28.7784L131.837 18.3253C131.8 18.2281 131.707 18.164 131.603 18.164H125.751Z" fill="#2F1C48"/>
<path d="M118.138 18.1489H114.712C114.574 18.1489 114.461 18.2617 114.461 18.4003V33.3618C114.461 33.5004 114.574 33.6129 114.712 33.6129H118.138C118.276 33.6129 118.388 33.5004 118.388 33.3618V18.4003C118.388 18.2617 118.276 18.1489 118.138 18.1489Z" fill="#2F1C48"/>
<path d="M116.442 11.3365C115.085 11.3365 113.984 12.4366 113.984 13.7949C113.984 15.1542 115.085 16.2553 116.442 16.2553C117.799 16.2553 118.899 15.1542 118.899 13.7949C118.899 12.4366 117.799 11.3365 116.442 11.3365Z" fill="#2F1C48"/>
<path d="M146.592 19.6372H145.964V20.4384H146.592C146.905 20.4384 147.092 20.285 147.092 20.0376C147.092 19.777 146.905 19.6372 146.592 19.6372ZM146.999 20.7802L147.681 21.736H147.106L146.492 20.8593H145.964V21.736H145.483V19.2026H146.611C147.199 19.2026 147.586 19.5038 147.586 20.0107C147.586 20.4259 147.346 20.6797 146.999 20.7802ZM146.464 18.3598C145.23 18.3598 144.295 19.3422 144.295 20.5457C144.295 21.7484 145.223 22.7179 146.452 22.7179C147.686 22.7179 148.622 21.736 148.622 20.532C148.622 19.3292 147.693 18.3598 146.464 18.3598ZM146.452 22.9593C145.096 22.9593 144.041 21.8693 144.041 20.5457C144.041 19.2219 145.11 18.1195 146.464 18.1195C147.82 18.1195 148.875 19.2095 148.875 20.532C148.875 21.8557 147.807 22.9593 146.452 22.9593Z" fill="#2F1C48"/>
</g>
<defs>
<clipPath id="clip0_56_3955">
<rect width="150" height="45.0397" fill="white" transform="translate(0 0.796814)"/>
</clipPath>
</defs>
</svg>
